<svg width="74" height="74" viewBox="0 0 74 74" fill="none" xmlns="http://www.w3.org/2000/svg">
<mask id="mask0_5_2" style="mask-type:luminance" maskUnits="userSpaceOnUse" x="0" y="0" width="74" height="74">
<path d="M0 74H74V1.95205e-06H0V74Z" fill="white"/>
</mask>
<g mask="url(#mask0_5_2)">
<path d="M72.3439 49.7687C70.7202 48.7612 69.164 47.3754 67.7253 45.6519C65.2548 42.6991 63.0355 38.6855 60.9335 33.3864C60.9335 33.3828 60.9285 33.3755 60.9285 33.3719C60.2766 31.719 59.6808 29.9295 58.9514 27.9172C56.9731 22.4625 55.9814 18.4941 55.9814 18.4941C55.1908 15.9451 54.3328 13.2955 53.4548 11.2054C51.6613 6.93651 48.7538 3.86428 44.8134 2.07108C41.5611 0.592887 38.495 0.433564 37.3235 0.433564C37.0312 0.433564 36.8201 0.444419 36.7127 0.44804C36.6041 0.440798 36.3992 0.433564 36.1007 0.433564C34.9355 0.433564 31.8631 0.592887 28.6108 2.07108C24.6704 3.86428 21.7629 6.93651 19.9694 11.2054C19.0964 13.2838 18.2396 15.9369 17.4427 18.4941C17.4427 18.4941 16.2975 22.8589 14.4728 27.9172C13.4774 30.6781 12.6543 33.0606 11.7563 35.1769C11.7563 35.1805 11.7513 35.1841 11.7513 35.1878C9.71677 39.9717 7.55361 43.607 5.1394 46.2937C3.76306 47.8271 2.28305 49.0654 0.741852 49.9697C2.25183 54.0078 9.55192 52.6074 7.58983 55.1157C6.53697 56.4608 8.65767 56.9795 10.3787 57.1579C12.3358 57.3615 14.3341 57.4466 16.245 57.7951C17.9098 58.0993 20.3241 58.7365 20.9623 59.8743C21.5218 60.8746 18.8141 60.556 18.8041 61.4268C18.7991 61.9527 19.7595 62.3311 20.3965 62.5682C23.2678 63.6354 26.4277 64.3469 29.7311 64.6321C31.637 64.7986 34.2211 65.0358 35.1965 66.2587C35.5874 66.7475 35.6336 67.3115 35.5362 67.8482C35.0841 70.3493 35.3863 73.4252 38.2539 73.522C41.1202 73.618 38.5562 71.7913 41.726 69.0006C44.8958 66.2107 46.0061 65.5581 49.9303 64.7914C53.8545 64.0211 60.5288 62.2568 58.4169 58.8886C56.3049 55.524 68.1886 59.0733 66.0867 53.308C65.4085 51.418 74.0025 52.3666 72.3439 49.7687Z" fill="white"/>
<path d="M38.4737 73.9774C38.3913 73.9774 38.3101 73.9774 38.2377 73.9737C37.3435 73.9439 36.5991 73.6777 36.0295 73.1844C34.4109 71.7913 34.7244 68.949 34.9355 67.793C35.0329 67.2626 34.9392 66.8218 34.6732 66.485C33.8402 65.4431 31.3285 65.225 29.6687 65.0802C26.3302 64.7914 23.1192 64.0799 20.1242 62.9683C19.4461 62.7167 18.1884 62.2496 18.1984 61.4268C18.2034 60.7044 19.1538 60.4673 19.7845 60.3079C19.9906 60.2554 20.3291 60.1704 20.4277 60.1079C20.4227 60.0961 20.4165 60.0744 20.4015 60.0445C19.9956 59.314 18.4282 58.6551 16.1114 58.2323C14.8275 57.9988 13.4611 57.8838 12.136 57.7689C11.5352 57.7173 10.9183 57.6657 10.3075 57.6023C8.47282 57.4131 7.32255 56.9949 6.89041 56.3577C6.68559 56.0571 6.55196 55.5575 7.07027 54.8976C7.28134 54.6269 7.36377 54.4124 7.30257 54.2902C7.17393 54.0376 6.33589 53.8195 5.52407 53.6041C3.63317 53.108 1.03911 52.4264 0.166097 50.0873L0.0636902 49.8058L0.377177 49.6212C1.86717 48.7459 3.30594 47.5455 4.64606 46.0484C7.0303 43.3952 9.166 39.7971 11.1806 35.0547C11.1806 35.0502 11.1855 35.043 11.1905 35.0357C11.9299 33.2977 12.6081 31.4004 13.3949 29.1999C13.5585 28.7437 13.7234 28.2766 13.8982 27.7987C15.6967 22.811 16.847 18.4461 16.857 18.4054L16.862 18.39C17.6588 15.8256 18.5218 13.1652 19.3998 11.0715C21.2383 6.69937 24.2345 3.54202 28.3023 1.68908C31.6882 0.147527 34.8992 -0.0190178 36.122 -0.0190178C36.3892 -0.0190178 36.5941 -0.0117832 36.7327 -0.00363645C36.8663 -0.0117832 37.0712 -0.0190178 37.3434 -0.0190178C38.5661 -0.0190178 41.7772 0.147527 45.1631 1.68908C49.2309 3.54202 52.2321 6.69937 54.0706 11.0715C54.9548 13.1734 55.8128 15.8301 56.6084 18.39L56.6134 18.409C56.6246 18.4498 57.625 22.4254 59.5722 27.7987C59.8244 28.4957 60.0605 29.1628 60.2866 29.8109C60.7137 31.023 61.1183 32.1644 61.5405 33.2389C61.5455 33.2461 61.5455 33.2534 61.5505 33.2642C63.6312 38.5225 65.8294 42.4982 68.2748 45.4192C69.6824 47.1011 71.1924 48.4499 72.7698 49.4284L72.8734 49.4908L72.9296 49.5795C73.2581 50.0955 73.2893 50.5581 73.0171 50.9591C72.4613 51.781 70.8289 52.0553 69.2465 52.3259C68.2399 52.4961 66.9859 52.7115 66.7336 53.0111C66.7136 53.0338 66.6774 53.0818 66.7186 53.1967C67.1658 54.4269 67.0621 55.3683 66.3952 56.0761C65.3523 57.1841 63.2615 57.3697 61.4168 57.5326C60.3278 57.6286 59.0951 57.7363 58.859 58.0395C58.7603 58.1617 58.8178 58.3989 59.0077 58.7067C59.5984 59.6481 59.6196 60.556 59.0689 61.3969C58.0372 62.9756 55.026 64.2655 50.1151 65.225C46.457 65.9437 45.4254 66.4733 42.2293 69.2857C40.7805 70.5648 40.6319 71.6057 40.5195 72.3652C40.4571 72.8142 40.4008 73.2025 40.0874 73.5067C39.6715 73.9068 39.0083 73.9774 38.4737 73.9774ZM1.47124 50.1245C2.27306 51.8 4.29636 52.3295 5.93997 52.7631C7.11647 53.0709 8.13437 53.3379 8.45784 53.9788C8.65768 54.368 8.55526 54.8125 8.14436 55.3348C7.84086 55.724 7.95951 55.9014 8.00073 55.9612C8.22679 56.2943 9.156 56.5758 10.4824 56.7134C11.0781 56.7759 11.6889 56.8284 12.2796 56.8763C13.641 56.9913 15.0485 57.1099 16.4149 57.3579C18.357 57.71 20.8286 58.407 21.553 59.7033C21.7066 59.9812 21.7166 60.241 21.568 60.4673C21.3157 60.8674 20.715 61.0158 20.1904 61.1489C19.9294 61.2159 19.4411 61.3381 19.4411 61.4268C19.4411 61.6078 19.862 61.8567 20.695 62.1681C23.5513 63.2317 26.6225 63.9097 29.8185 64.1876C31.7244 64.3542 34.6057 64.6022 35.751 66.0324C36.1619 66.5439 36.3018 67.1739 36.1732 67.9035C35.7823 70.0678 36.0858 71.8284 36.99 72.6024C37.3335 72.8993 37.7656 73.055 38.3051 73.0694C39.1682 73.0993 39.1731 73.0513 39.2855 72.2692C39.4042 71.4428 39.5791 70.1972 41.2689 68.7118C44.4537 65.9066 45.6252 65.1689 49.7917 64.3542C54.2717 63.4762 57.0918 62.3193 57.9448 61.0077C58.3395 60.4075 58.3145 59.7703 57.8724 59.0696C57.4977 58.4695 57.4614 57.9879 57.7699 57.5951C58.3145 56.899 59.6808 56.7759 61.2582 56.6392C62.8394 56.498 64.6329 56.3432 65.3573 55.572C65.8044 55.0976 65.8506 54.3753 65.5059 53.423C65.3935 53.108 65.4447 52.8039 65.6608 52.5477C66.1841 51.9222 67.5304 51.6923 68.953 51.4515C70.1295 51.2514 71.5933 51.0025 71.8918 50.5662C71.928 50.5137 72.0254 50.3689 71.8406 50.0394C70.2069 49.0056 68.6457 47.6089 67.202 45.8818C64.7003 42.8955 62.4597 38.8484 60.349 33.5095L60.3428 33.4942C59.9119 32.4088 59.506 31.2565 59.0751 30.0372C58.8478 29.3927 58.6117 28.7247 58.3607 28.0322C56.4498 22.7522 55.4419 18.8055 55.3857 18.5828C54.5951 16.041 53.7471 13.406 52.8741 11.3349C51.1218 7.17369 48.3017 4.18292 44.4949 2.44946C41.3825 1.03373 38.4537 0.878026 37.3397 0.878026C37.0612 0.878026 36.8713 0.885282 36.7789 0.892524L36.7277 0.896126L36.6765 0.892524C36.5841 0.888903 36.393 0.878026 36.117 0.878026C35.0017 0.878026 32.0729 1.03011 28.9605 2.44946C25.1487 4.18292 22.3336 7.17369 20.5813 11.3349C19.7133 13.3987 18.8603 16.0374 18.0697 18.5828C18.0135 18.7901 16.867 23.1115 15.0947 28.0286C14.9249 28.5065 14.7563 28.9736 14.5914 29.4253C13.8008 31.6376 13.1177 33.5458 12.367 35.3064L12.362 35.3208C10.3125 40.1419 8.12938 43.8143 5.68394 46.5381C4.35756 48.009 2.94624 49.2129 1.47124 50.1245Z" fill="#252B44"/>
<path d="M35.7822 71.9063C35.8234 71.9208 35.741 71.8873 35.7822 71.9063C34.9292 71.5505 35.7984 69.5084 35.731 68.9119C35.6386 68.0529 35.9109 67.0662 35.2427 66.2922C34.6107 65.5663 32.7161 65.0693 31.2361 64.528C31.4209 64.5769 35.9571 64.4022 37.5707 65.4694C40.2772 67.2518 34.7805 69.7682 35.7822 71.9063Z" fill="#252B44"/>
<path d="M58.0159 55.294C58.6579 55.4343 59.4959 55.161 60.1017 55.0415C61.6179 54.7491 63.0604 54.3083 64.4992 54.731C66.1328 55.2126 66.1116 54.9202 66.3127 54.9492C65.0588 51.7257 67.1907 52.2743 69.6823 51.7927C70.6952 51.5954 71.5982 51.2623 72.5649 51.0441C72.2052 51.0767 71.1773 51.0106 71.0537 51.0143C68.4496 51.0396 65.8556 51.2849 63.3801 51.8072C61.6179 52.1774 59.9318 52.726 58.6791 53.6194C58.257 53.9154 56.8294 55.0306 58.0159 55.294Z" fill="#252B44"/>
<path d="M50.5111 60.9045C51.153 61.0448 51.9898 60.7705 52.5968 60.6528C54.1118 60.3595 55.272 60.1595 57.1892 60.2301C58.2732 60.2708 58.6067 60.5297 58.8078 60.5596C57.5538 57.3353 59.6858 57.8838 62.1774 57.4023C63.1891 57.2058 64.0933 56.8727 65.0588 56.6536C64.7003 56.6871 63.6724 56.6211 63.5488 56.6247C60.9447 56.65 58.3507 56.8944 55.874 57.4176C54.1118 57.7879 52.4269 58.3364 51.173 59.2289C50.7571 59.5259 49.3246 60.641 50.5111 60.9045Z" fill="#252B44"/>
<path d="M34.1149 13.5906C34.1412 14.0387 34.08 14.4723 33.9301 14.8914C33.7802 15.3096 33.5541 15.6834 33.2494 16.0102C32.9459 16.3361 32.5887 16.5923 32.1766 16.776C31.7644 16.9607 31.3311 17.0602 30.8739 17.0747C30.4168 17.0892 29.9722 17.0168 29.54 16.8593C29.1079 16.7009 28.722 16.4682 28.3798 16.1623C28.0376 15.8554 27.7665 15.4979 27.5667 15.0905C27.3681 14.6814 27.2545 14.2541 27.227 13.806C27.2008 13.3589 27.262 12.9253 27.4118 12.5062C27.5617 12.0871 27.789 11.7141 28.0925 11.3874C28.396 11.0606 28.7545 10.8053 29.1654 10.6207C29.5775 10.436 30.0122 10.3364 30.468 10.3219C30.9251 10.3075 31.3698 10.3799 31.8019 10.5383C32.234 10.6958 32.6212 10.9284 32.9634 11.2353C33.3044 11.5412 33.5754 11.8988 33.7752 12.307C33.9751 12.7153 34.0875 13.1434 34.1149 13.5906Z" fill="#252B44"/>
<path d="M33.4193 13.788C33.4193 13.788 33.4455 13.7246 33.4705 13.7065C33.4967 13.6839 33.5279 13.7065 33.5317 13.8767C33.5379 14.285 33.4967 14.6995 33.2806 15.0924C33.1008 15.4264 32.8597 15.7523 32.515 16.0302C32.1716 16.3045 31.6982 16.5262 31.1637 16.5932C30.9638 16.6158 30.6191 16.6339 30.2707 16.5787C29.921 16.5226 29.5925 16.3932 29.3814 16.2818C29.1653 16.175 28.8981 15.9704 28.6982 15.7523C28.4922 15.5368 28.3698 15.3115 28.3023 15.1965C28.2724 15.1368 28.2149 15.0335 28.1487 14.9068C28.1225 14.8444 28.0925 14.7738 28.0613 14.7031C28.0351 14.6325 28.0151 14.5556 27.9889 14.485C27.9077 14.1917 27.8964 13.9174 27.9227 13.8957C27.9839 13.8441 28.0351 13.9437 28.0713 14.0659C28.3336 14.8887 29.1454 16.2782 30.5529 16.2854C32.1716 16.2963 33.1832 15.1295 33.3581 14.0921C33.3631 14.0478 33.378 14.0025 33.383 13.9545C33.398 13.8993 33.4093 13.8468 33.4193 13.788Z" fill="white"/>
<path d="M43.4358 10.322C43.8929 10.3365 44.3263 10.4351 44.7384 10.6198C45.1493 10.8044 45.5078 11.0606 45.8113 11.3865C46.1148 11.7133 46.3421 12.0862 46.4919 12.5053C46.6418 12.9244 46.7043 13.358 46.6768 13.8052C46.6505 14.2532 46.5369 14.6814 46.3371 15.0896C46.1372 15.4979 45.8662 15.8545 45.524 16.1614C45.183 16.4683 44.7959 16.7 44.3638 16.8584C43.9316 17.0168 43.487 17.0883 43.0299 17.0739C42.574 17.0603 42.1394 16.9607 41.7272 16.776C41.3163 16.5914 40.9579 16.3361 40.6544 16.0093C40.3509 15.6826 40.1236 15.3096 39.9737 14.8905C39.8238 14.4714 39.7626 14.0378 39.7889 13.5897C39.8163 13.1426 39.9287 12.7144 40.1286 12.3062C40.3284 11.8979 40.5994 11.5413 40.9416 11.2344C41.2826 10.9276 41.6698 10.6958 42.1032 10.5374C42.5353 10.379 42.9799 10.3075 43.4358 10.322Z" fill="#252B44"/>
<path d="M45.9386 13.788C45.9386 13.788 45.9636 13.7246 45.9898 13.7065C46.0161 13.6839 46.046 13.7065 46.051 13.8767C46.0573 14.285 46.0161 14.6995 45.8 15.0924C45.6202 15.4264 45.3791 15.7523 45.0344 16.0302C44.6897 16.3045 44.2176 16.5262 43.683 16.5932C43.4832 16.6158 43.1385 16.6339 42.7901 16.5787C42.4404 16.5226 42.1119 16.3932 41.9008 16.2818C41.6847 16.175 41.4175 15.9704 41.2176 15.7523C41.0128 15.5368 40.8892 15.3115 40.8217 15.1965C40.7917 15.1368 40.7343 15.0335 40.6681 14.9068C40.6419 14.8444 40.6107 14.7738 40.5807 14.7031C40.5545 14.6325 40.5345 14.5556 40.5082 14.485C40.4258 14.1917 40.4158 13.9174 40.442 13.8957C40.5032 13.8441 40.5544 13.9437 40.5907 14.0659C40.7855 14.6814 41.1714 15.5115 41.9108 15.9043C43.3858 16.6855 45.0194 15.8337 45.6202 14.7964C45.7738 14.533 45.8662 14.2397 45.9024 13.9591C45.9187 13.8993 45.9287 13.8468 45.9386 13.788Z" fill="white"/>
<path d="M17.1193 57.6584C17.1193 57.6584 21.6505 57.6584 26.1866 60.078C27.4343 60.7451 28.2511 62.4388 25.6309 61.8495C19.9656 60.575 19.5085 62.0423 19.5085 62.0423C19.5085 62.0423 18.9378 61.9201 18.8091 61.4304C18.4394 60.011 21.6342 60.3595 17.1193 57.6584Z" fill="#252B44"/>
<path d="M2.41669 51.9367C2.41669 51.9367 14.6376 50.406 17.3653 54.9347C17.3653 54.9347 17.9198 56.5686 15.2234 55.6055C10.1789 53.8005 5.68392 56.3984 10.3887 57.1615C10.3887 57.1615 8.03694 57.1099 7.68224 56.4057C7.32754 55.7014 8.08314 55.3348 8.0157 54.7935C7.76341 52.8039 4.41 53.423 2.41669 51.9367Z" fill="#252B44"/>
<path d="M17.0056 54.6007C17.9973 53.1035 18.8653 51.5583 19.6159 49.9878C20.3715 48.4163 20.9973 46.8042 21.5006 45.1631C21.6554 44.6218 21.8403 44.0804 21.9689 43.5246C22.0401 43.2513 22.1076 42.9734 22.1787 42.6955C22.215 42.5579 22.2512 42.4176 22.2874 42.28C22.3224 42.1424 22.3486 42.0021 22.3798 41.8618C22.4972 41.3051 22.6259 40.7457 22.7545 40.1935C22.8569 39.6377 22.9656 39.0865 23.088 38.5415C23.088 38.5415 23.1854 38.2555 23.2678 38.1668C23.3503 38.0781 23.4115 38.1822 23.3353 38.967L23.2578 39.7862L23.2216 40.1935C23.2116 40.3311 23.1854 40.4642 23.1654 40.6018L22.9344 42.232L22.6259 43.8587C22.5796 44.1293 22.5085 44.4 22.446 44.6706L22.2512 45.4781C21.9789 46.5562 21.6554 47.627 21.2808 48.687C21.1933 48.954 21.0847 49.2165 20.9823 49.48L20.6738 50.2729L20.3303 51.0586L20.1555 51.4515C20.0993 51.5809 20.0268 51.7104 19.9656 51.8407C19.4511 52.9224 18.8503 53.986 18.1309 55.0162C18.1309 55.0162 18.0847 55.0904 18.0073 55.1981C17.9261 55.3049 17.8224 55.4461 17.6788 55.5719C17.4065 55.8317 17.0318 56.0535 16.7134 55.9051C16.3999 55.7575 16.4773 55.4461 16.6259 55.1537C16.7021 55.0089 16.7895 54.8677 16.867 54.7681C16.9494 54.6677 17.0056 54.6007 17.0056 54.6007Z" fill="#252B44"/>
<path d="M27.0596 60.5895C28.2149 59.0887 29.1191 57.4837 29.8485 55.839C30.2132 55.0162 30.5329 54.1789 30.804 53.3298C31.0712 52.4816 31.2973 51.6253 31.4721 50.7581C31.7032 49.6212 31.8631 48.4499 31.9755 47.2749C32.0891 46.1009 32.1653 44.9259 32.2065 43.7736C32.2065 43.7736 32.259 43.4695 32.3202 43.3699C32.3864 43.2694 32.4638 43.3735 32.52 44.1954C32.6649 46.4747 32.5974 48.7649 32.2527 51.0396C31.9043 53.3153 31.2611 55.5756 30.2132 57.758C29.6687 58.8922 29.0017 60.0002 28.1587 61.052C28.1587 61.052 27.9476 61.3562 27.6291 61.616C27.3219 61.8749 26.8948 62.0858 26.5975 61.912C26.309 61.7418 26.4377 61.434 26.6225 61.1416C26.8073 60.8484 27.0596 60.5895 27.0596 60.5895Z" fill="#252B44"/>
<path d="M37.2311 66.4216C37.5545 64.9398 37.7456 63.4499 37.848 61.949C37.9454 60.4482 37.9505 58.9402 37.8368 57.4249C37.7494 56.2427 37.6782 55.094 37.5183 53.9263C37.3747 52.9188 37.241 52.3965 37.0924 51.3772C37.0924 51.3772 37.0874 51.1102 37.1286 51.0179C37.1699 50.9219 37.2773 51.0025 37.4771 51.6995C37.9504 53.3967 38.3913 55.0605 38.6087 56.7949C38.7872 58.273 38.9671 59.9703 38.9783 61.6748C38.9983 63.3793 38.8547 65.0955 38.485 66.5773C38.485 66.5773 38.4738 66.6479 38.4438 66.7556C38.4126 66.8625 38.3713 67.0037 38.2939 67.1404C38.1453 67.4146 37.9042 67.6708 37.5395 67.6111C37.1749 67.5522 37.0974 67.2517 37.1187 66.9702C37.1287 66.829 37.1536 66.6923 37.1799 66.5882C37.2048 66.4886 37.2311 66.4216 37.2311 66.4216Z" fill="#252B44"/>
<path d="M49.2421 59.6409C48.6713 58.6397 48.1943 57.6214 47.7834 56.5867C47.3824 55.5539 47.0427 54.512 46.7505 53.4674C46.457 52.4219 46.2309 51.3664 46.0261 50.3137C45.825 49.2573 45.6614 48.1983 45.5228 47.1383C45.3117 45.4781 45.2405 43.866 45.2043 42.2321C45.1781 40.82 45.1318 40.0714 45.2555 38.6484C45.2555 38.6484 45.3217 38.2854 45.3991 38.1705C45.4765 38.0555 45.5328 38.1822 45.5478 39.1635C45.574 40.361 45.6714 41.5432 45.795 42.7209C45.9187 43.9031 46.0773 45.0816 46.2421 46.2747C46.5144 48.3123 47.0178 50.6323 47.7322 52.9116C48.0906 54.0495 48.4965 55.1791 48.9486 56.2572C49.4057 57.3353 49.9041 58.3618 50.4186 59.3032C50.4186 59.3032 50.4748 59.3928 50.5473 59.5259C50.6234 59.659 50.7059 59.8482 50.7883 60.0337C50.9419 60.4076 51.0194 60.8113 50.6746 60.9308C50.3362 61.0448 49.9665 60.7262 49.683 60.3777C49.5394 60.2039 49.437 60.0192 49.3545 59.878C49.2883 59.7368 49.2421 59.6409 49.2421 59.6409Z" fill="#252B44"/>
<path d="M56.5672 54.034C56.4036 53.786 56.2387 53.538 56.0739 53.2891C55.9202 53.0374 55.7716 52.7849 55.6168 52.5332C55.5406 52.4074 55.4631 52.2816 55.3907 52.1558L55.1809 51.7738C55.0423 51.5176 54.8974 51.2659 54.77 51.0071C54.2404 49.9806 53.7783 48.9387 53.3612 47.8868C52.5556 45.7822 51.9536 43.6396 51.5539 41.4726C51.3941 40.6271 51.2817 39.7898 51.2092 38.9561C51.138 38.1224 51.0906 37.2924 51.0756 36.4551C51.0656 35.7327 51.0606 35.1806 51.0806 34.6248C51.1018 34.0726 51.1381 33.5168 51.2505 32.7899C51.2505 32.7899 51.3479 32.4197 51.4353 32.3084C51.4765 32.2531 51.5127 32.2568 51.5227 32.4007C51.5377 32.5455 51.5277 32.827 51.5077 33.3276C51.4615 34.5469 51.5377 35.7545 51.6664 36.9557C51.795 38.1596 51.9948 39.3599 52.2159 40.5719C52.407 41.6057 52.6792 42.71 53.0227 43.8397C53.3674 44.9703 53.7933 46.1262 54.2817 47.2641C54.77 48.4055 55.3083 49.5316 55.899 50.6033C55.9715 50.7364 56.0439 50.8695 56.1201 51.0025C56.1975 51.1365 56.27 51.2659 56.3462 51.3999C56.496 51.6624 56.6396 51.9222 56.7983 52.1739C56.9531 52.4264 57.1018 52.6781 57.2504 52.9225C57.4103 53.1669 57.5639 53.4076 57.7125 53.6412C57.7125 53.6412 57.9648 53.9969 58.1546 54.3753C58.3395 54.7528 58.4481 55.1683 58.1084 55.2905C57.7749 55.4163 57.384 55.1013 57.0755 54.7564C56.7733 54.416 56.5672 54.034 56.5672 54.034Z" fill="#252B44"/>
<path d="M11.0619 43.0286C11.0619 43.0286 10.872 43.2323 10.7746 43.2839C10.6772 43.3364 10.6772 43.2431 11.0469 42.6466C11.9299 41.191 12.6493 39.7201 13.4461 38.2301C14.7912 35.6802 15.8291 32.9936 16.7845 30.363C16.872 30.115 16.9906 29.7855 17.1292 29.4035C17.2579 29.0216 17.4015 28.5916 17.5501 28.1507C17.695 27.7099 17.8386 27.2573 17.971 26.8319C18.1059 26.4055 18.2283 26.009 18.3307 25.6759C18.5368 25.0088 18.8653 24.0158 19.1488 23.0626C19.436 22.1104 19.6983 21.207 19.827 20.7326C20.1042 19.7876 20.8224 15.7559 21.0072 15.5965C21.1821 15.4218 21.1771 15.8147 21.1209 16.3225C21.0697 16.834 20.9722 17.4604 20.936 17.7527C20.9048 18.0641 20.8024 18.7874 20.6837 19.5133C20.5663 20.2393 20.4327 20.9617 20.3603 21.273C20.073 22.5331 19.7133 23.6673 19.426 24.9156C19.0514 26.5313 18.5318 28.2467 18.0185 29.8407C17.1143 32.6161 15.7779 35.2656 14.3291 37.8997C13.7646 38.9262 13.1426 39.9011 12.5056 40.8905C11.9611 41.7387 11.6988 42.1985 11.0619 43.0286Z" fill="#252B44"/>
<path d="M28.9343 27.5397C28.9343 27.5397 28.9755 27.3542 29.0267 27.2908C29.0779 27.2283 29.1454 27.2944 29.1803 27.795C29.2578 29.0143 29.3764 30.2037 29.3502 31.4266C29.299 33.5122 29.3352 35.6539 29.0679 37.7413C29.0167 38.1296 28.9193 38.7931 28.8169 39.4856C28.7032 40.179 28.5546 40.9014 28.4472 41.4164C28.3235 41.9315 28.1025 42.7027 27.8864 43.4323C27.6354 44.1556 27.3993 44.8444 27.2694 45.2074C27.2033 45.393 27.0908 45.7116 26.9572 46.0963C26.8898 46.2891 26.8186 46.4973 26.7461 46.7118C26.7099 46.8196 26.6737 46.9273 26.6337 47.0341L26.5763 47.197C26.5563 47.2495 26.5363 47.3047 26.5101 47.3563C26.1604 48.2054 25.8269 48.9803 25.7445 49.0319C25.3748 49.2536 25.8981 47.827 26.0218 47.3898C26.0992 47.1599 26.2216 46.615 26.3765 46.0746C26.4526 45.8039 26.5251 45.5333 26.5913 45.2997C26.6537 45.0671 26.6949 44.8743 26.7311 44.7557C26.8635 44.285 27.0034 43.8324 27.1421 43.3843C27.2595 42.9326 27.3631 42.4764 27.4393 42.0021C27.553 41.3911 27.6291 40.7493 27.7265 40.112C27.7528 39.9527 27.779 39.7934 27.799 39.6341C27.8252 39.4748 27.8402 39.3155 27.8564 39.1561C27.8914 38.8411 27.9276 38.5261 27.9639 38.2183C28.1899 36.0812 28.5084 33.9684 28.652 31.8231C28.7082 30.9858 28.7957 30.1738 28.8419 29.3474C28.8569 28.9917 28.8631 28.7174 28.8681 28.4431C28.8881 28.1734 28.9043 27.8991 28.9343 27.5397Z" fill="#252B44"/>
<path d="M53.3212 22.2778C53.3212 22.2778 53.2437 21.3437 53.6496 22.5593C54.153 24.0375 54.7337 25.4641 55.242 26.9468C55.6742 28.2141 56.1613 29.4814 56.6708 30.7451C57.1792 32.0123 57.6925 33.2751 58.1908 34.5243C58.2832 34.7578 58.4119 35.0728 58.5555 35.4322C58.7041 35.7915 58.874 36.1953 59.0488 36.6071C59.1413 36.8108 59.2337 37.0181 59.3211 37.2254C59.4135 37.429 59.501 37.6373 59.5934 37.8301C59.7782 38.2184 59.9481 38.5859 60.1067 38.8891C60.4052 39.5011 60.8673 40.4162 61.3144 41.2906C61.7616 42.1614 62.2024 42.9843 62.4335 43.4142C62.6658 43.8442 63.3377 44.9404 63.9709 45.9452C64.6017 46.949 65.1874 47.8642 65.1824 47.961C65.1724 48.1683 64.8739 47.8606 64.5404 47.4342C64.207 47.0124 63.831 46.4711 63.6462 46.2267C63.4514 45.9669 63.0092 45.3477 62.5884 44.7222C62.1625 44.0958 61.7566 43.4658 61.5917 43.1915C60.9285 42.0727 60.4002 41.0317 59.737 39.9202C59.5209 39.5644 59.3161 39.1933 59.105 38.8231C59.0076 38.6339 58.9052 38.4447 58.8078 38.2555C58.7091 38.0672 58.6067 37.8744 58.5193 37.6816C58.3394 37.296 58.1496 36.9149 57.9847 36.5329C57.8161 36.1509 57.6463 35.7734 57.4876 35.3987C56.3723 32.8089 55.5917 30.1929 54.7699 27.5615C54.4515 26.535 54.1942 25.5311 53.9169 24.5119C53.6696 23.6302 53.511 23.1704 53.3212 22.2778Z" fill="#252B44"/>
</g>
</svg>
