<svg width="281" height="110" viewBox="0 0 281 110" fill="none" xmlns="http://www.w3.org/2000/svg">
<path d="M140.209 94.0344H280.427V16H140.209V94.0344Z" fill="#CD1B21"/>
<mask id="mask0_1_380" style="mask-type:luminance" maskUnits="userSpaceOnUse" x="0" y="16" width="141" height="79">
<path d="M0 94.0345H140.209V16.0001H0V94.0345Z" fill="white"/>
</mask>
<g mask="url(#mask0_1_380)">
<path d="M0 94.0345H140.217V16.0001H0V94.0345Z" fill="#62B4E4"/>
</g>
<path d="M177.232 74.308C175.499 72.824 173.837 70.7826 172.301 68.2439C169.664 63.8946 167.295 57.9826 165.051 50.1773C165.051 50.172 165.045 50.1613 165.045 50.1559C164.349 47.7213 163.713 45.0853 162.935 42.1213C160.823 34.0866 159.764 28.2413 159.764 28.2413C158.92 24.4866 158.004 20.584 157.067 17.5053C155.152 11.2173 152.048 6.69197 147.841 4.05064C144.369 1.87331 141.096 1.63863 139.845 1.63863C139.533 1.63863 139.308 1.65462 139.193 1.65995C139.077 1.64928 138.859 1.63863 138.54 1.63863C137.296 1.63863 134.016 1.87331 130.544 4.05064C126.337 6.69197 123.233 11.2173 121.319 17.5053C120.387 20.5666 119.472 24.4746 118.621 28.2413C118.621 28.2413 117.399 34.6706 115.451 42.1213C114.388 46.1879 113.509 49.6973 112.551 52.8146C112.551 52.82 112.545 52.8253 112.545 52.8306C110.373 59.8773 108.064 65.232 105.487 69.1893C104.017 71.448 102.437 73.272 100.792 74.604C102.404 80.552 110.197 78.4893 108.103 82.184C106.979 84.1653 109.243 84.9293 111.08 85.192C113.169 85.492 115.303 85.6173 117.343 86.1306C119.12 86.5786 121.697 87.5173 122.379 89.1933C122.976 90.6666 120.085 90.1973 120.075 91.48C120.069 92.2546 121.095 92.812 121.775 93.1613C124.84 94.7333 128.213 95.7813 131.74 96.2013C133.775 96.4466 136.533 96.796 137.575 98.5973C137.992 99.3173 138.041 100.148 137.937 100.939C137.455 104.623 137.777 109.153 140.839 109.296C143.899 109.437 141.161 106.747 144.545 102.636C147.929 98.5266 149.115 97.5653 153.304 96.436C157.493 95.3013 164.619 92.7026 162.364 87.7413C160.109 82.7853 172.796 88.0133 170.552 79.5213C169.828 76.7373 179.003 78.1346 177.232 74.308Z" fill="white"/>
<path d="M141.073 109.967C140.985 109.967 140.899 109.967 140.821 109.961C139.867 109.917 139.072 109.525 138.464 108.799C136.736 106.747 137.071 102.56 137.296 100.857C137.4 100.076 137.3 99.4266 137.016 98.9306C136.127 97.396 133.445 97.0746 131.673 96.8613C128.109 96.436 124.681 95.388 121.484 93.7506C120.76 93.38 119.417 92.692 119.428 91.48C119.433 90.416 120.448 90.0666 121.121 89.832C121.341 89.7546 121.703 89.6293 121.808 89.5373C121.803 89.52 121.796 89.488 121.78 89.444C121.347 88.368 119.673 87.3973 117.2 86.7747C115.829 86.4307 114.371 86.2613 112.956 86.092C112.315 86.016 111.656 85.94 111.004 85.8466C109.045 85.568 107.817 84.952 107.356 84.0133C107.137 83.5706 106.995 82.8346 107.548 81.8626C107.773 81.464 107.861 81.148 107.796 80.968C107.659 80.596 106.764 80.2747 105.897 79.9573C103.879 79.2267 101.109 78.2226 100.177 74.7773L100.068 74.3626L100.403 74.0907C101.993 72.8013 103.529 71.0333 104.96 68.828C107.505 64.92 109.785 59.62 111.936 52.6346C111.936 52.628 111.941 52.6173 111.947 52.6067C112.736 50.0467 113.46 47.252 114.3 44.0107C114.475 43.3387 114.651 42.6507 114.837 41.9467C116.757 34.6 117.985 28.1707 117.996 28.1107L118.001 28.088C118.852 24.3106 119.773 20.392 120.711 17.308C122.673 10.868 125.872 6.21731 130.215 3.48797C133.829 1.21731 137.257 0.971992 138.563 0.971992C138.848 0.971992 139.067 0.982643 139.215 0.994644C139.357 0.982643 139.576 0.971992 139.867 0.971992C141.172 0.971992 144.6 1.21731 148.215 3.48797C152.557 6.21731 155.761 10.868 157.724 17.308C158.668 20.404 159.584 24.3173 160.433 28.088L160.439 28.116C160.451 28.176 161.519 34.032 163.597 41.9467C163.867 42.9733 164.119 43.956 164.36 44.9107C164.816 46.696 165.248 48.3773 165.699 49.96C165.704 49.9706 165.704 49.9813 165.709 49.9973C167.931 57.7426 170.277 63.5986 172.888 67.9013C174.391 70.3786 176.003 72.3653 177.687 73.8067L177.797 73.8986L177.857 74.0293C178.208 74.7893 178.241 75.4706 177.951 76.0613C177.357 77.272 175.615 77.676 173.925 78.0747C172.851 78.3253 171.512 78.6426 171.243 79.084C171.221 79.1173 171.183 79.188 171.227 79.3573C171.704 81.1693 171.593 82.556 170.881 83.5986C169.768 85.2306 167.536 85.504 165.567 85.744C164.404 85.8853 163.088 86.044 162.836 86.4907C162.731 86.6707 162.792 87.02 162.995 87.4733C163.625 88.86 163.648 90.1973 163.06 91.436C161.959 93.7613 158.744 95.6613 153.501 97.0747C149.596 98.1333 148.495 98.9133 145.083 103.056C143.536 104.94 143.377 106.473 143.257 107.592C143.191 108.253 143.131 108.825 142.796 109.273C142.352 109.863 141.644 109.967 141.073 109.967ZM101.571 74.832C102.427 77.3 104.587 78.08 106.341 78.7186C107.597 79.172 108.684 79.5653 109.029 80.5093C109.243 81.0827 109.133 81.7373 108.695 82.5067C108.371 83.08 108.497 83.3413 108.541 83.4293C108.783 83.92 109.775 84.3347 111.191 84.5373C111.827 84.6293 112.479 84.7066 113.109 84.7773C114.563 84.9466 116.065 85.1213 117.524 85.4866C119.597 86.0053 122.236 87.032 123.009 88.9413C123.173 89.3507 123.184 89.7333 123.025 90.0666C122.756 90.656 122.115 90.8746 121.555 91.0707C121.276 91.1693 120.755 91.3493 120.755 91.48C120.755 91.7466 121.204 92.1133 122.093 92.572C125.143 94.1387 128.421 95.1373 131.833 95.5466C133.868 95.792 136.944 96.1573 138.167 98.264C138.605 99.0173 138.755 99.9453 138.617 101.02C138.2 104.208 138.524 106.801 139.489 107.941C139.856 108.379 140.317 108.608 140.893 108.629C141.815 108.673 141.82 108.603 141.94 107.451C142.067 106.233 142.253 104.399 144.057 102.211C147.457 98.0786 148.708 96.992 153.156 95.792C157.939 94.4987 160.949 92.7946 161.86 90.8626C162.281 89.9786 162.255 89.04 161.783 88.008C161.383 87.124 161.344 86.4146 161.673 85.836C162.255 84.8106 163.713 84.6293 165.397 84.428C167.085 84.22 169 83.992 169.773 82.856C170.251 82.1573 170.3 81.0933 169.932 79.6907C169.812 79.2267 169.867 78.7786 170.097 78.4013C170.656 77.48 172.093 77.1413 173.612 76.7866C174.868 76.492 176.431 76.1253 176.749 75.4826C176.788 75.4053 176.892 75.192 176.695 74.7067C174.951 73.184 173.284 71.1266 171.743 68.5826C169.072 64.184 166.68 58.2226 164.427 50.3586L164.42 50.336C163.96 48.7373 163.527 47.04 163.067 45.244C162.824 44.2947 162.572 43.3106 162.304 42.2906C160.264 34.5133 159.188 28.7 159.128 28.372C158.284 24.628 157.379 20.7466 156.447 17.696C154.576 11.5666 151.565 7.16132 147.501 4.60799C144.179 2.52266 141.052 2.29331 139.863 2.29331C139.565 2.29331 139.363 2.304 139.264 2.31467L139.209 2.31997L139.155 2.31467C139.056 2.30933 138.852 2.29331 138.557 2.29331C137.367 2.29331 134.24 2.51733 130.917 4.60799C126.848 7.16132 123.843 11.5666 121.972 17.696C121.045 20.736 120.135 24.6227 119.291 28.372C119.231 28.6773 118.007 35.0426 116.115 42.2853C115.933 42.9893 115.753 43.6773 115.577 44.3427C114.733 47.6013 114.004 50.412 113.203 53.0053L113.197 53.0266C111.009 60.128 108.679 65.5373 106.068 69.5493C104.652 71.716 103.145 73.4893 101.571 74.832Z" fill="#252B44"/>
<path d="M138.2 106.916C138.156 106.888 138.244 106.937 138.2 106.916C137.289 106.392 138.217 103.384 138.145 102.505C138.047 101.24 138.337 99.7867 137.624 98.6467C136.949 97.5773 134.927 96.8453 133.347 96.048C133.544 96.12 138.387 95.8627 140.109 97.4347C142.999 100.06 137.131 103.767 138.2 106.916Z" fill="#252B44"/>
<path d="M161.936 82.4467C162.621 82.6533 163.516 82.2507 164.163 82.0747C165.781 81.644 167.321 80.9947 168.857 81.6173C170.601 82.3267 170.579 81.896 170.793 81.9387C169.455 77.1907 171.731 77.9987 174.391 77.2893C175.472 76.9987 176.436 76.508 177.468 76.1867C177.084 76.2347 175.987 76.1373 175.855 76.1427C173.075 76.18 170.305 76.5413 167.663 77.3106C165.781 77.856 163.981 78.664 162.644 79.98C162.193 80.416 160.669 82.0587 161.936 82.4467Z" fill="#252B44"/>
<path d="M153.924 90.7106C154.609 90.9173 155.503 90.5133 156.151 90.34C157.768 89.908 159.007 89.6133 161.053 89.7173C162.211 89.7773 162.567 90.1587 162.781 90.2027C161.443 85.4533 163.719 86.2613 166.379 85.552C167.459 85.2627 168.424 84.772 169.455 84.4493C169.072 84.4987 167.975 84.4013 167.843 84.4067C165.063 84.444 162.293 84.804 159.649 85.5747C157.768 86.12 155.969 86.928 154.631 88.2427C154.187 88.68 152.657 90.3226 153.924 90.7106Z" fill="#252B44"/>
<path d="M136.42 21.0186C136.448 21.6786 136.383 22.3173 136.223 22.9346C136.063 23.5506 135.821 24.1013 135.496 24.5827C135.172 25.0627 134.791 25.44 134.351 25.7106C133.911 25.9826 133.448 26.1293 132.96 26.1507C132.472 26.172 131.997 26.0653 131.536 25.8333C131.075 25.6 130.663 25.2573 130.297 24.8066C129.932 24.3546 129.643 23.828 129.429 23.228C129.217 22.6253 129.096 21.996 129.067 21.336C129.039 20.6773 129.104 20.0386 129.264 19.4213C129.424 18.804 129.667 18.2546 129.991 17.7733C130.315 17.292 130.697 16.916 131.136 16.644C131.576 16.372 132.04 16.2253 132.527 16.204C133.015 16.1826 133.489 16.2893 133.951 16.5226C134.412 16.7546 134.825 17.0973 135.191 17.5493C135.555 18 135.844 18.5266 136.057 19.128C136.271 19.7293 136.391 20.36 136.42 21.0186Z" fill="#252B44"/>
<path d="M135.677 21.3093C135.677 21.3093 135.705 21.216 135.732 21.1893C135.76 21.156 135.793 21.1893 135.797 21.44C135.804 22.0413 135.76 22.652 135.529 23.2307C135.337 23.7227 135.08 24.2027 134.712 24.612C134.345 25.016 133.84 25.3427 133.269 25.4413C133.056 25.4747 132.688 25.5013 132.316 25.42C131.943 25.3373 131.592 25.1467 131.367 24.9827C131.136 24.8254 130.851 24.524 130.637 24.2027C130.417 23.8853 130.287 23.5534 130.215 23.384C130.183 23.296 130.121 23.144 130.051 22.9573C130.023 22.8653 129.991 22.7613 129.957 22.6573C129.929 22.5533 129.908 22.44 129.88 22.336C129.793 21.904 129.781 21.5 129.809 21.468C129.875 21.392 129.929 21.5387 129.968 21.7187C130.248 22.9307 131.115 24.9773 132.617 24.988C134.345 25.004 135.425 23.2853 135.612 21.7573C135.617 21.692 135.633 21.6253 135.639 21.5547C135.655 21.4733 135.667 21.396 135.677 21.3093Z" fill="white"/>
<path d="M146.371 16.204C146.859 16.2253 147.321 16.3707 147.761 16.6427C148.2 16.9147 148.583 17.292 148.907 17.772C149.231 18.2533 149.473 18.8026 149.633 19.42C149.793 20.0373 149.86 20.676 149.831 21.3347C149.803 21.9947 149.681 22.6253 149.468 23.2267C149.255 23.828 148.965 24.3533 148.6 24.8053C148.236 25.2573 147.823 25.5987 147.361 25.832C146.9 26.0653 146.425 26.1707 145.937 26.1493C145.451 26.1293 144.987 25.9827 144.547 25.7107C144.108 25.4387 143.725 25.0627 143.401 24.5813C143.077 24.1 142.835 23.5507 142.675 22.9333C142.515 22.316 142.449 21.6773 142.477 21.0173C142.507 20.3587 142.627 19.728 142.84 19.1267C143.053 18.5253 143.343 18 143.708 17.548C144.072 17.096 144.485 16.7547 144.948 16.5213C145.409 16.288 145.884 16.1827 146.371 16.204Z" fill="#252B44"/>
<path d="M149.043 21.3093C149.043 21.3093 149.069 21.216 149.097 21.1893C149.125 21.156 149.157 21.1893 149.163 21.44C149.169 22.0413 149.125 22.652 148.895 23.2307C148.703 23.7227 148.445 24.2027 148.077 24.612C147.709 25.016 147.205 25.3427 146.635 25.4413C146.421 25.4747 146.053 25.5013 145.681 25.42C145.308 25.3373 144.957 25.1467 144.732 24.9827C144.501 24.8254 144.216 24.524 144.003 24.2027C143.784 23.8853 143.652 23.5534 143.58 23.384C143.548 23.296 143.487 23.144 143.416 22.9573C143.388 22.8653 143.355 22.7613 143.323 22.6573C143.295 22.5533 143.273 22.44 143.245 22.336C143.157 21.904 143.147 21.5 143.175 21.468C143.24 21.392 143.295 21.5387 143.333 21.7187C143.541 22.6253 143.953 23.848 144.743 24.4267C146.317 25.5773 148.061 24.3227 148.703 22.7947C148.867 22.4067 148.965 21.9747 149.004 21.5613C149.021 21.4733 149.032 21.396 149.043 21.3093Z" fill="white"/>
<path d="M118.276 85.9293C118.276 85.9293 123.113 85.9293 127.956 89.4933C129.288 90.476 130.16 92.9707 127.363 92.1027C121.315 90.2253 120.827 92.3867 120.827 92.3867C120.827 92.3867 120.217 92.2067 120.08 91.4853C119.685 89.3947 123.096 89.908 118.276 85.9293Z" fill="#252B44"/>
<path d="M102.58 77.5013C102.58 77.5013 115.627 75.2467 118.539 81.9173C118.539 81.9173 119.131 84.324 116.252 82.9053C110.867 80.2467 106.068 84.0733 111.091 85.1973C111.091 85.1973 108.58 85.1213 108.201 84.084C107.823 83.0467 108.629 82.5067 108.557 81.7093C108.288 78.7787 104.708 79.6907 102.58 77.5013Z" fill="#252B44"/>
<path d="M118.155 81.4253C119.213 79.22 120.14 76.944 120.941 74.6306C121.748 72.316 122.416 69.9413 122.953 67.524C123.119 66.7266 123.316 65.9293 123.453 65.1106C123.529 64.708 123.601 64.2986 123.677 63.8893C123.716 63.6866 123.755 63.48 123.793 63.2773C123.831 63.0746 123.859 62.868 123.892 62.6613C124.017 61.8413 124.155 61.0173 124.292 60.204C124.401 59.3853 124.517 58.5733 124.648 57.7706C124.648 57.7706 124.752 57.3493 124.84 57.2186C124.928 57.088 124.993 57.2413 124.912 58.3973L124.829 59.604L124.791 60.204C124.78 60.4066 124.752 60.6026 124.731 60.8053L124.484 63.2066L124.155 65.6026C124.105 66.0013 124.029 66.4 123.963 66.7986L123.755 67.988C123.464 69.576 123.119 71.1533 122.719 72.7146C122.625 73.108 122.509 73.4946 122.4 73.8826L122.071 75.0506L121.704 76.208L121.517 76.7866C121.457 76.9773 121.38 77.168 121.315 77.36C120.765 78.9533 120.124 80.52 119.356 82.0373C119.356 82.0373 119.307 82.1466 119.224 82.3053C119.137 82.4626 119.027 82.6706 118.873 82.856C118.583 83.2386 118.183 83.5653 117.843 83.3466C117.508 83.1293 117.591 82.6706 117.749 82.24C117.831 82.0266 117.924 81.8186 118.007 81.672C118.095 81.524 118.155 81.4253 118.155 81.4253Z" fill="#252B44"/>
<path d="M128.888 90.2467C130.121 88.036 131.087 85.672 131.865 83.2493C132.255 82.0373 132.596 80.804 132.885 79.5533C133.171 78.304 133.412 77.0427 133.599 75.7653C133.845 74.0907 134.016 72.3653 134.136 70.6347C134.257 68.9053 134.339 67.1747 134.383 65.4773C134.383 65.4773 134.439 65.0293 134.504 64.8827C134.575 64.7347 134.657 64.888 134.717 66.0987C134.872 69.456 134.8 72.8293 134.432 76.18C134.06 79.532 133.373 82.8613 132.255 86.076C131.673 87.7467 130.961 89.3787 130.061 90.928C130.061 90.928 129.836 91.376 129.496 91.7587C129.168 92.14 128.712 92.4507 128.395 92.1947C128.087 91.944 128.224 91.4907 128.421 91.06C128.619 90.628 128.888 90.2467 128.888 90.2467Z" fill="#252B44"/>
<path d="M139.747 98.8373C140.092 96.6547 140.296 94.46 140.405 92.2493C140.509 90.0387 140.515 87.8173 140.393 85.5853C140.3 83.844 140.224 82.152 140.053 80.432C139.9 78.948 139.757 78.1786 139.599 76.6773C139.599 76.6773 139.593 76.284 139.637 76.148C139.681 76.0067 139.796 76.1253 140.009 77.152C140.515 79.652 140.985 82.1027 141.217 84.6573C141.408 86.8347 141.6 89.3346 141.612 91.8453C141.633 94.356 141.48 96.884 141.085 99.0667C141.085 99.0667 141.073 99.1706 141.041 99.3293C141.008 99.4866 140.964 99.6946 140.881 99.896C140.723 100.3 140.465 100.677 140.076 100.589C139.687 100.503 139.604 100.06 139.627 99.6453C139.637 99.4373 139.664 99.236 139.692 99.0827C139.719 98.936 139.747 98.8373 139.747 98.8373Z" fill="#252B44"/>
<path d="M152.569 88.8493C151.96 87.3746 151.451 85.8746 151.012 84.3506C150.584 82.8293 150.221 81.2947 149.909 79.756C149.596 78.216 149.355 76.6613 149.136 75.1106C148.921 73.5546 148.747 71.9946 148.599 70.4333C148.373 67.988 148.297 65.6133 148.259 63.2067C148.231 61.1267 148.181 60.024 148.313 57.928C148.313 57.928 148.384 57.3933 148.467 57.224C148.549 57.0547 148.609 57.2413 148.625 58.6866C148.653 60.4506 148.757 62.192 148.889 63.9266C149.021 65.668 149.191 67.404 149.367 69.1613C149.657 72.1626 150.195 75.58 150.957 78.9373C151.34 80.6133 151.773 82.2773 152.256 83.8653C152.744 85.4533 153.276 86.9653 153.825 88.352C153.825 88.352 153.885 88.484 153.963 88.68C154.044 88.876 154.132 89.1546 154.22 89.428C154.384 89.9786 154.467 90.5733 154.099 90.7493C153.737 90.9173 153.343 90.448 153.04 89.9346C152.887 89.6786 152.777 89.4066 152.689 89.1986C152.619 88.9906 152.569 88.8493 152.569 88.8493Z" fill="#252B44"/>
<path d="M160.389 80.5907C160.215 80.2253 160.039 79.86 159.863 79.4933C159.699 79.1227 159.54 78.7507 159.375 78.38C159.293 78.1947 159.211 78.0093 159.133 77.824L158.909 77.2613C158.761 76.884 158.607 76.5133 158.471 76.132C157.905 74.62 157.412 73.0853 156.967 71.536C156.107 68.436 155.464 65.28 155.037 62.088C154.867 60.8427 154.747 59.6093 154.669 58.3813C154.593 57.1533 154.543 55.9307 154.527 54.6973C154.516 53.6333 154.511 52.82 154.532 52.0013C154.555 51.188 154.593 50.3693 154.713 49.2987C154.713 49.2987 154.817 48.7533 154.911 48.5893C154.955 48.508 154.993 48.5133 155.004 48.7253C155.02 48.9387 155.009 49.3533 154.988 50.0906C154.939 51.8867 155.02 53.6653 155.157 55.4347C155.295 57.208 155.508 58.976 155.744 60.7613C155.948 62.284 156.239 63.9107 156.605 65.5747C156.973 67.24 157.428 68.9427 157.949 70.6187C158.471 72.3 159.045 73.9587 159.676 75.5373C159.753 75.7333 159.831 75.9293 159.912 76.1253C159.995 76.3227 160.072 76.5133 160.153 76.7107C160.313 77.0973 160.467 77.48 160.636 77.8507C160.801 78.2227 160.96 78.5933 161.119 78.9533C161.289 79.3133 161.453 79.668 161.612 80.012C161.612 80.012 161.881 80.536 162.084 81.0933C162.281 81.6493 162.397 82.2613 162.035 82.4413C161.679 82.6267 161.261 82.1627 160.932 81.6547C160.609 81.1533 160.389 80.5907 160.389 80.5907Z" fill="#252B44"/>
<path d="M111.809 64.38C111.809 64.38 111.607 64.68 111.503 64.756C111.399 64.8333 111.399 64.696 111.793 63.8173C112.736 61.6733 113.504 59.5067 114.355 57.312C115.791 53.556 116.899 49.5987 117.919 45.724C118.012 45.3587 118.139 44.8733 118.287 44.3107C118.424 43.748 118.577 43.1147 118.736 42.4653C118.891 41.816 119.044 41.1493 119.185 40.5227C119.329 39.8947 119.46 39.3107 119.569 38.82C119.789 37.8373 120.14 36.3747 120.443 34.9707C120.749 33.568 121.029 32.2373 121.167 31.5387C121.463 30.1467 122.229 24.208 122.427 23.9733C122.613 23.716 122.608 24.2947 122.548 25.0427C122.493 25.796 122.389 26.7187 122.351 27.1493C122.317 27.608 122.208 28.6733 122.081 29.7427C121.956 30.812 121.813 31.876 121.736 32.3347C121.429 34.1907 121.045 35.8613 120.739 37.7C120.339 40.08 119.784 42.6067 119.236 44.9547C118.271 49.0427 116.844 52.9453 115.297 56.8253C114.695 58.3373 114.031 59.7733 113.351 61.2307C112.769 62.48 112.489 63.1573 111.809 64.38Z" fill="#252B44"/>
<path d="M130.889 41.5653C130.889 41.5653 130.933 41.292 130.988 41.1986C131.043 41.1066 131.115 41.204 131.152 41.9413C131.235 43.7373 131.361 45.4893 131.333 47.2906C131.279 50.3626 131.317 53.5173 131.032 56.592C130.977 57.164 130.873 58.1413 130.764 59.1613C130.643 60.1826 130.484 61.2466 130.369 62.0053C130.237 62.764 130.001 63.9 129.771 64.9746C129.503 66.04 129.251 67.0546 129.112 67.5893C129.041 67.8626 128.921 68.332 128.779 68.8986C128.707 69.1826 128.631 69.4893 128.553 69.8053C128.515 69.964 128.476 70.1226 128.433 70.28L128.372 70.52C128.351 70.5973 128.329 70.6786 128.301 70.7546C127.928 72.0053 127.572 73.1466 127.484 73.2226C127.089 73.5493 127.648 71.448 127.78 70.804C127.863 70.4653 127.993 69.6626 128.159 68.8666C128.24 68.468 128.317 68.0693 128.388 67.7253C128.455 67.3826 128.499 67.0986 128.537 66.924C128.679 66.2306 128.828 65.564 128.976 64.904C129.101 64.2386 129.212 63.5666 129.293 62.868C129.415 61.968 129.496 61.0226 129.6 60.084C129.628 59.8493 129.656 59.6146 129.677 59.38C129.705 59.1453 129.721 58.9106 129.739 58.676C129.776 58.212 129.815 57.748 129.853 57.2946C130.095 54.1466 130.435 51.0346 130.588 47.8746C130.648 46.6413 130.741 45.4453 130.791 44.228C130.807 43.704 130.813 43.3 130.819 42.896C130.84 42.4986 130.857 42.0946 130.889 41.5653Z" fill="#252B44"/>
<path d="M156.924 33.8147C156.924 33.8147 156.841 32.4386 157.275 34.2293C157.812 36.4066 158.432 38.508 158.975 40.692C159.436 42.5586 159.956 44.4253 160.5 46.2866C161.043 48.1533 161.591 50.0133 162.123 51.8533C162.221 52.1973 162.359 52.6613 162.512 53.1906C162.671 53.72 162.852 54.3147 163.039 54.9213C163.137 55.2213 163.236 55.5266 163.329 55.832C163.428 56.132 163.521 56.4387 163.62 56.7227C163.817 57.2947 163.999 57.836 164.168 58.2826C164.487 59.184 164.98 60.532 165.457 61.82C165.935 63.1026 166.405 64.3146 166.652 64.948C166.9 65.5813 167.617 67.196 168.293 68.676C168.967 70.1547 169.592 71.5026 169.587 71.6453C169.576 71.9506 169.257 71.4973 168.901 70.8693C168.545 70.248 168.144 69.4507 167.947 69.0907C167.739 68.708 167.267 67.796 166.817 66.8747C166.363 65.952 165.929 65.024 165.753 64.62C165.045 62.972 164.481 61.4386 163.773 59.8013C163.543 59.2773 163.324 58.7306 163.099 58.1853C162.995 57.9066 162.885 57.628 162.781 57.3493C162.676 57.072 162.567 56.788 162.473 56.504C162.281 55.936 162.079 55.3746 161.903 54.812C161.723 54.2493 161.541 53.6933 161.372 53.1413C160.181 49.3267 159.348 45.4733 158.471 41.5973C158.131 40.0853 157.856 38.6067 157.56 37.1053C157.296 35.8067 157.127 35.1293 156.924 33.8147Z" fill="#252B44"/>
<path d="M189.142 49.5967C189.036 48.524 188.579 47.6906 187.773 47.0965C186.966 46.5025 185.871 46.2055 184.488 46.2055C183.548 46.2055 182.754 46.3385 182.107 46.6045C181.46 46.8616 180.964 47.2207 180.618 47.6817C180.281 48.1427 180.112 48.6658 180.112 49.251C180.095 49.7386 180.197 50.1642 180.418 50.5277C180.649 50.8912 180.964 51.2059 181.363 51.4719C181.761 51.729 182.223 51.9551 182.746 52.1502C183.269 52.3363 183.827 52.4959 184.421 52.6289L186.868 53.2141C188.056 53.4801 189.147 53.8347 190.14 54.278C191.133 54.7213 191.993 55.2666 192.72 55.9138C193.447 56.561 194.01 57.3235 194.409 58.2012C194.817 59.0789 195.025 60.0852 195.034 61.2201C195.025 62.8869 194.599 64.332 193.757 65.5556C192.924 66.7702 191.718 67.7144 190.14 68.3882C188.571 69.0532 186.678 69.3857 184.461 69.3857C182.262 69.3857 180.347 69.0488 178.716 68.3749C177.094 67.7011 175.826 66.7037 174.912 65.3827C174.008 64.0528 173.534 62.4081 173.489 60.4487H179.062C179.124 61.3619 179.385 62.1244 179.846 62.7362C180.316 63.3391 180.941 63.7957 181.722 64.106C182.511 64.4074 183.402 64.5581 184.395 64.5581C185.37 64.5581 186.217 64.4163 186.935 64.1326C187.662 63.8489 188.225 63.4543 188.624 62.949C189.023 62.4436 189.222 61.8629 189.222 61.2068C189.222 60.595 189.04 60.0808 188.677 59.6641C188.322 59.2474 187.799 58.8928 187.108 58.6002C186.425 58.3076 185.587 58.0416 184.594 57.8022L181.628 57.0575C179.332 56.4989 177.519 55.6256 176.189 54.4376C174.859 53.2495 174.199 51.6492 174.208 49.6366C174.199 47.9876 174.638 46.5468 175.524 45.3145C176.42 44.0821 177.648 43.1201 179.208 42.4286C180.768 41.737 182.542 41.3913 184.528 41.3913C186.549 41.3913 188.313 41.737 189.821 42.4286C191.337 43.1201 192.516 44.0821 193.358 45.3145C194.2 46.5468 194.635 47.9743 194.662 49.5967H189.142ZM223.936 55.3818C223.936 58.3519 223.373 60.8787 222.247 62.9623C221.13 65.0458 219.605 66.6372 217.672 67.7366C215.748 68.8271 213.585 69.3724 211.182 69.3724C208.762 69.3724 206.59 68.8227 204.666 67.7233C202.742 66.6239 201.221 65.0325 200.104 62.949C198.987 60.8654 198.428 58.3431 198.428 55.3818C198.428 52.4117 198.987 49.8849 200.104 47.8014C201.221 45.7179 202.742 44.1309 204.666 43.0403C206.59 41.941 208.762 41.3913 211.182 41.3913C213.585 41.3913 215.748 41.941 217.672 43.0403C219.605 44.1309 221.13 45.7179 222.247 47.8014C223.373 49.8849 223.936 52.4117 223.936 55.3818ZM218.098 55.3818C218.098 53.4579 217.81 51.8354 217.233 50.5144C216.666 49.1933 215.863 48.1915 214.826 47.5088C213.789 46.8261 212.574 46.4848 211.182 46.4848C209.79 46.4848 208.576 46.8261 207.538 47.5088C206.501 48.1915 205.694 49.1933 205.118 50.5144C204.55 51.8354 204.267 53.4579 204.267 55.3818C204.267 57.3057 204.55 58.9282 205.118 60.2493C205.694 61.5703 206.501 62.5721 207.538 63.2548C208.576 63.9375 209.79 64.2789 211.182 64.2789C212.574 64.2789 213.789 63.9375 214.826 63.2548C215.863 62.5721 216.666 61.5703 217.233 60.2493C217.81 58.9282 218.098 57.3057 218.098 55.3818ZM245.025 41.7636H250.783V59.4513C250.783 61.4373 250.309 63.175 249.36 64.6645C248.421 66.154 247.104 67.3155 245.411 68.1489C243.717 68.9734 241.744 69.3857 239.492 69.3857C237.232 69.3857 235.255 68.9734 233.561 68.1489C231.868 67.3155 230.551 66.154 229.611 64.6645C228.671 63.175 228.202 61.4373 228.202 59.4513V41.7636H233.96V58.9592C233.96 59.9966 234.186 60.9186 234.638 61.7254C235.099 62.5322 235.747 63.1662 236.58 63.6272C237.413 64.0882 238.384 64.3187 239.492 64.3187C240.61 64.3187 241.58 64.0882 242.405 63.6272C243.238 63.1662 243.881 62.5322 244.333 61.7254C244.794 60.9186 245.025 59.9966 245.025 58.9592V41.7636ZM255.521 69V41.7636H261.28V64.2523H272.956V69H255.521Z" fill="#F6F7FB"/>
<path d="M17.3299 46.5114V41.7636H39.6988V46.5114H31.3604V69H25.6684V46.5114H17.3299ZM43.3827 69V41.7636H61.7353V46.5114H49.1411V53.0013H60.7911V57.749H49.1411V64.2523H61.7885V69H43.3827ZM66.3135 69V41.7636H84.6661V46.5114H72.0719V53.0013H83.7219V57.749H72.0719V64.2523H84.7193V69H66.3135Z" fill="black"/>
</svg>
